<svg xmlns="http://www.w3.org/2000/svg" xmlns:xlink="http://www.w3.org/1999/xlink" x="0" y="0" enable-background="new 0 0 282.3 214.8" version="1.1" viewBox="0 0 282.3 214.8" xml:space="preserve"><g id="Layer_2"><rect width="46.8" height="38.6" x="117.9" y="164.7" fill="#C0E3EA"/></g><g id="Layer_1"><g><path fill="#C0E3EA" stroke="#2671A5" stroke-linecap="round" stroke-linejoin="round" stroke-miterlimit="10" stroke-width="20" d="M260.8,159.8H21.5c-6.4,0-11.5-5.2-11.5-11.5V21.5C10,15.2,15.2,10,21.5,10h239.3c6.4,0,11.5,5.2,11.5,11.5v126.7 C272.3,154.6,267.2,159.8,260.8,159.8z"/><g><path fill="none" stroke="#2671A5" stroke-linecap="round" stroke-linejoin="round" stroke-miterlimit="10" stroke-width="14" d="M121.2,164.7c0,0,1,42.2-34.7,42"/><path fill="none" stroke="#2671A5" stroke-linecap="round" stroke-linejoin="round" stroke-miterlimit="10" stroke-width="14" d="M159.3,164.7c0,0-1,42.2,34.7,42"/><line x1="86.2" x2="194.2" y1="207.8" y2="207.8" fill="none" stroke="#2671A5" stroke-linecap="round" stroke-linejoin="round" stroke-miterlimit="10" stroke-width="14"/></g><g><line x1="140.3" x2="189.1" y1="64.6" y2="112.1" fill="#2671A5"/><g><line x1="162.5" x2="189.1" y1="86.2" y2="112.1" fill="none" stroke="#2671A5" stroke-linecap="round" stroke-linejoin="round" stroke-width="10"/><g><polygon fill="#2671A5" points="159.6 110.2 167.2 90.7 186.4 82.6 140.3 64.6"/></g></g></g></g></g></svg>